<?xml version="1.0" encoding="UTF-8" standalone="no"?>
<!DOCTYPE svg PUBLIC "-//W3C//DTD SVG 1.1//EN"
 "http://www.w3.org/Graphics/SVG/1.1/DTD/svg11.dtd">
<!-- Generated by graphviz version 2.43.0 (0)
 -->
<!-- Title: controllers_diagram Pages: 1 -->
<svg width="500pt" height="583pt"
 viewBox="0.00 0.00 500.00 583.00" xmlns="http://www.w3.org/2000/svg" xmlns:xlink="http://www.w3.org/1999/xlink">
<g id="graph0" class="graph" transform="scale(1 1) rotate(0) translate(4 579)">
<title>controllers_diagram</title>
<polygon fill="transparent" stroke="transparent" points="-4,4 -4,-579 496,-579 496,4 -4,4"/>
<!-- _diagram_info -->
<g id="node1" class="node">
<title>_diagram_info</title>
<text text-anchor="start" x="236" y="-63.6" font-family="Times,serif" font-size="13.00">Controllers diagram</text>
<text text-anchor="start" x="236" y="-49.6" font-family="Times,serif" font-size="13.00">Date: Feb 01 2024 &#45; 16:29</text>
<text text-anchor="start" x="236" y="-35.6" font-family="Times,serif" font-size="13.00">Migration version: 20220122014642</text>
<text text-anchor="start" x="236" y="-21.6" font-family="Times,serif" font-size="13.00">Generated by RailRoady 1.6.0</text>
<text text-anchor="start" x="236" y="-7.6" font-family="Times,serif" font-size="13.00">http://railroady.prestonlee.com</text>
</g>
<!-- ApplicationController -->
<g id="node2" class="node">
<title>ApplicationController</title>
<path fill="none" stroke="black" d="M12,-456.5C12,-456.5 158,-456.5 158,-456.5 164,-456.5 170,-462.5 170,-468.5 170,-468.5 170,-538.5 170,-538.5 170,-544.5 164,-550.5 158,-550.5 158,-550.5 12,-550.5 12,-550.5 6,-550.5 0,-544.5 0,-538.5 0,-538.5 0,-468.5 0,-468.5 0,-462.5 6,-456.5 12,-456.5"/>
<text text-anchor="middle" x="85" y="-535.3" font-family="Times,serif" font-size="14.00">ApplicationController</text>
<polyline fill="none" stroke="black" points="0,-527.5 170,-527.5 "/>
<polyline fill="none" stroke="black" points="0,-503.5 170,-503.5 "/>
<polyline fill="none" stroke="black" points="0,-479.5 170,-479.5 "/>
<text text-anchor="start" x="8" y="-464.3" font-family="Times,serif" font-size="14.00">_layout</text>
</g>
<!-- AuthorsController -->
<g id="node3" class="node">
<title>AuthorsController</title>
<path fill="none" stroke="black" d="M354,-114.5C354,-114.5 476,-114.5 476,-114.5 482,-114.5 488,-120.5 488,-126.5 488,-126.5 488,-315.5 488,-315.5 488,-321.5 482,-327.5 476,-327.5 476,-327.5 354,-327.5 354,-327.5 348,-327.5 342,-321.5 342,-315.5 342,-315.5 342,-126.5 342,-126.5 342,-120.5 348,-114.5 354,-114.5"/>
<text text-anchor="middle" x="415" y="-312.3" font-family="Times,serif" font-size="14.00">AuthorsController</text>
<polyline fill="none" stroke="black" points="342,-304.5 488,-304.5 "/>
<text text-anchor="start" x="350" y="-289.3" font-family="Times,serif" font-size="14.00">create</text>
<text text-anchor="start" x="350" y="-274.3" font-family="Times,serif" font-size="14.00">destroy</text>
<text text-anchor="start" x="350" y="-259.3" font-family="Times,serif" font-size="14.00">edit</text>
<text text-anchor="start" x="350" y="-244.3" font-family="Times,serif" font-size="14.00">index</text>
<text text-anchor="start" x="350" y="-229.3" font-family="Times,serif" font-size="14.00">new</text>
<text text-anchor="start" x="350" y="-214.3" font-family="Times,serif" font-size="14.00">show</text>
<text text-anchor="start" x="350" y="-199.3" font-family="Times,serif" font-size="14.00">update</text>
<polyline fill="none" stroke="black" points="342,-191.5 488,-191.5 "/>
<polyline fill="none" stroke="black" points="342,-167.5 488,-167.5 "/>
<text text-anchor="start" x="350" y="-152.3" font-family="Times,serif" font-size="14.00">_layout</text>
<text text-anchor="start" x="350" y="-137.3" font-family="Times,serif" font-size="14.00">author_params</text>
<text text-anchor="start" x="350" y="-122.3" font-family="Times,serif" font-size="14.00">set_author</text>
</g>
<!-- CategoriesController -->
<g id="node4" class="node">
<title>CategoriesController</title>
<path fill="none" stroke="black" d="M145,-114.5C145,-114.5 288,-114.5 288,-114.5 294,-114.5 300,-120.5 300,-126.5 300,-126.5 300,-315.5 300,-315.5 300,-321.5 294,-327.5 288,-327.5 288,-327.5 145,-327.5 145,-327.5 139,-327.5 133,-321.5 133,-315.5 133,-315.5 133,-126.5 133,-126.5 133,-120.5 139,-114.5 145,-114.5"/>
<text text-anchor="middle" x="216.5" y="-312.3" font-family="Times,serif" font-size="14.00">CategoriesController</text>
<polyline fill="none" stroke="black" points="133,-304.5 300,-304.5 "/>
<text text-anchor="start" x="141" y="-289.3" font-family="Times,serif" font-size="14.00">create</text>
<text text-anchor="start" x="141" y="-274.3" font-family="Times,serif" font-size="14.00">destroy</text>
<text text-anchor="start" x="141" y="-259.3" font-family="Times,serif" font-size="14.00">edit</text>
<text text-anchor="start" x="141" y="-244.3" font-family="Times,serif" font-size="14.00">index</text>
<text text-anchor="start" x="141" y="-229.3" font-family="Times,serif" font-size="14.00">new</text>
<text text-anchor="start" x="141" y="-214.3" font-family="Times,serif" font-size="14.00">show</text>
<text text-anchor="start" x="141" y="-199.3" font-family="Times,serif" font-size="14.00">update</text>
<polyline fill="none" stroke="black" points="133,-191.5 300,-191.5 "/>
<polyline fill="none" stroke="black" points="133,-167.5 300,-167.5 "/>
<text text-anchor="start" x="141" y="-152.3" font-family="Times,serif" font-size="14.00">_layout</text>
<text text-anchor="start" x="141" y="-137.3" font-family="Times,serif" font-size="14.00">category_params</text>
<text text-anchor="start" x="141" y="-122.3" font-family="Times,serif" font-size="14.00">set_category</text>
</g>
<!-- PagesController -->
<g id="node5" class="node">
<title>PagesController</title>
<path fill="none" stroke="black" d="M373,-361.5C373,-361.5 480,-361.5 480,-361.5 486,-361.5 492,-367.5 492,-373.5 492,-373.5 492,-562.5 492,-562.5 492,-568.5 486,-574.5 480,-574.5 480,-574.5 373,-574.5 373,-574.5 367,-574.5 361,-568.5 361,-562.5 361,-562.5 361,-373.5 361,-373.5 361,-367.5 367,-361.5 373,-361.5"/>
<text text-anchor="middle" x="426.5" y="-559.3" font-family="Times,serif" font-size="14.00">PagesController</text>
<polyline fill="none" stroke="black" points="361,-551.5 492,-551.5 "/>
<text text-anchor="start" x="369" y="-536.3" font-family="Times,serif" font-size="14.00">create</text>
<text text-anchor="start" x="369" y="-521.3" font-family="Times,serif" font-size="14.00">destroy</text>
<text text-anchor="start" x="369" y="-506.3" font-family="Times,serif" font-size="14.00">edit</text>
<text text-anchor="start" x="369" y="-491.3" font-family="Times,serif" font-size="14.00">index</text>
<text text-anchor="start" x="369" y="-476.3" font-family="Times,serif" font-size="14.00">new</text>
<text text-anchor="start" x="369" y="-461.3" font-family="Times,serif" font-size="14.00">show</text>
<text text-anchor="start" x="369" y="-446.3" font-family="Times,serif" font-size="14.00">update</text>
<polyline fill="none" stroke="black" points="361,-438.5 492,-438.5 "/>
<polyline fill="none" stroke="black" points="361,-414.5 492,-414.5 "/>
<text text-anchor="start" x="369" y="-399.3" font-family="Times,serif" font-size="14.00">_layout</text>
<text text-anchor="start" x="369" y="-384.3" font-family="Times,serif" font-size="14.00">page_params</text>
<text text-anchor="start" x="369" y="-369.3" font-family="Times,serif" font-size="14.00">set_page</text>
</g>
<!-- SitesController -->
<g id="node6" class="node">
<title>SitesController</title>
<path fill="none" stroke="black" d="M221,-361.5C221,-361.5 322,-361.5 322,-361.5 328,-361.5 334,-367.5 334,-373.5 334,-373.5 334,-562.5 334,-562.5 334,-568.5 328,-574.5 322,-574.5 322,-574.5 221,-574.5 221,-574.5 215,-574.5 209,-568.5 209,-562.5 209,-562.5 209,-373.5 209,-373.5 209,-367.5 215,-361.5 221,-361.5"/>
<text text-anchor="middle" x="271.5" y="-559.3" font-family="Times,serif" font-size="14.00">SitesController</text>
<polyline fill="none" stroke="black" points="209,-551.5 334,-551.5 "/>
<text text-anchor="start" x="217" y="-536.3" font-family="Times,serif" font-size="14.00">create</text>
<text text-anchor="start" x="217" y="-521.3" font-family="Times,serif" font-size="14.00">destroy</text>
<text text-anchor="start" x="217" y="-506.3" font-family="Times,serif" font-size="14.00">edit</text>
<text text-anchor="start" x="217" y="-491.3" font-family="Times,serif" font-size="14.00">index</text>
<text text-anchor="start" x="217" y="-476.3" font-family="Times,serif" font-size="14.00">new</text>
<text text-anchor="start" x="217" y="-461.3" font-family="Times,serif" font-size="14.00">show</text>
<text text-anchor="start" x="217" y="-446.3" font-family="Times,serif" font-size="14.00">update</text>
<polyline fill="none" stroke="black" points="209,-438.5 334,-438.5 "/>
<polyline fill="none" stroke="black" points="209,-414.5 334,-414.5 "/>
<text text-anchor="start" x="217" y="-399.3" font-family="Times,serif" font-size="14.00">_layout</text>
<text text-anchor="start" x="217" y="-384.3" font-family="Times,serif" font-size="14.00">set_site</text>
<text text-anchor="start" x="217" y="-369.3" font-family="Times,serif" font-size="14.00">site_params</text>
</g>
</g>
</svg>
