<?xml version="1.0" encoding="UTF-8" standalone="no"?>
<!DOCTYPE svg PUBLIC "-//W3C//DTD SVG 1.1//EN"
 "http://www.w3.org/Graphics/SVG/1.1/DTD/svg11.dtd">
<!-- Generated by graphviz version 2.43.0 (0)
 -->
<!-- Title: models_diagram Pages: 1 -->
<svg width="819pt" height="246pt"
 viewBox="0.00 0.00 818.75 246.00" xmlns="http://www.w3.org/2000/svg" xmlns:xlink="http://www.w3.org/1999/xlink">
<g id="graph0" class="graph" transform="scale(1 1) rotate(0) translate(4 242)">
<title>models_diagram</title>
<polygon fill="transparent" stroke="transparent" points="-4,4 -4,-242 814.75,-242 814.75,4 -4,4"/>
<!-- _diagram_info -->
<g id="node1" class="node">
<title>_diagram_info</title>
<text text-anchor="start" x="8" y="-223.6" font-family="Times,serif" font-size="13.00">Models diagram</text>
<text text-anchor="start" x="8" y="-209.6" font-family="Times,serif" font-size="13.00">Date: Feb 01 2024 &#45; 16:29</text>
<text text-anchor="start" x="8" y="-195.6" font-family="Times,serif" font-size="13.00">Migration version: 20220122014642</text>
<text text-anchor="start" x="8" y="-181.6" font-family="Times,serif" font-size="13.00">Generated by RailRoady 1.6.0</text>
<text text-anchor="start" x="8" y="-167.6" font-family="Times,serif" font-size="13.00">http://railroady.prestonlee.com</text>
</g>
<!-- ApplicationRecord -->
<g id="node2" class="node">
<title>ApplicationRecord</title>
<ellipse fill="none" stroke="black" cx="372.5" cy="-199" rx="95.58" ry="18"/>
<text text-anchor="middle" x="372.5" y="-195.3" font-family="Times,serif" font-size="14.00">ApplicationRecord</text>
</g>
<!-- Author -->
<g id="node3" class="node">
<title>Author</title>
<ellipse fill="none" stroke="black" cx="701.5" cy="-199" rx="42.49" ry="18"/>
<text text-anchor="middle" x="701.5" y="-195.3" font-family="Times,serif" font-size="14.00">Author</text>
</g>
<!-- Page -->
<g id="node5" class="node">
<title>Page</title>
<ellipse fill="none" stroke="black" cx="619.5" cy="-105" rx="33.29" ry="18"/>
<text text-anchor="middle" x="619.5" y="-101.3" font-family="Times,serif" font-size="14.00">Page</text>
</g>
<!-- Author&#45;&gt;Page -->
<g id="edge1" class="edge">
<title>Author&#45;&gt;Page</title>
<path fill="none" stroke="#d4633f" d="M680.37,-174.29C668,-160.41 652.44,-142.96 640.15,-129.17"/>
<polygon fill="#d4633f" stroke="#d4633f" points="680.56,-174.51 683.86,-184.97 683.89,-178.24 687.22,-181.97 687.22,-181.97 687.22,-181.97 683.89,-178.24 690.58,-178.98 680.56,-174.51 680.56,-174.51"/>
<polygon fill="#d4633f" stroke="#d4633f" points="640,-129 636.71,-118.54 636.67,-125.27 633.35,-121.53 633.35,-121.53 633.35,-121.53 636.67,-125.27 629.99,-124.53 640,-129 640,-129"/>
</g>
<!-- Site -->
<g id="node7" class="node">
<title>Site</title>
<ellipse fill="none" stroke="black" cx="781.5" cy="-18" rx="29.5" ry="18"/>
<text text-anchor="middle" x="781.5" y="-14.3" font-family="Times,serif" font-size="14.00">Site</text>
</g>
<!-- Author&#45;&gt;Site -->
<g id="edge2" class="edge">
<title>Author&#45;&gt;Site</title>
<path fill="none" stroke="#eda75b" d="M715.74,-172.21C729.57,-146.54 750.59,-105.78 765.5,-69 768.55,-61.48 771.41,-53.15 773.85,-45.47"/>
<polygon fill="#eda75b" stroke="#eda75b" points="715.6,-172.48 706.87,-179.12 713.21,-176.87 710.82,-181.27 710.82,-181.27 710.82,-181.27 713.21,-176.87 714.78,-183.41 715.6,-172.48 715.6,-172.48"/>
<polygon fill="#eda75b" stroke="#eda75b" points="773.85,-45.45 781.09,-37.21 775.32,-40.67 776.79,-35.89 776.79,-35.89 776.79,-35.89 775.32,-40.67 772.48,-34.57 773.85,-45.45 773.85,-45.45"/>
</g>
<!-- Category -->
<g id="node4" class="node">
<title>Category</title>
<ellipse fill="none" stroke="black" cx="539.5" cy="-199" rx="53.09" ry="18"/>
<text text-anchor="middle" x="539.5" y="-195.3" font-family="Times,serif" font-size="14.00">Category</text>
</g>
<!-- Category&#45;&gt;Page -->
<g id="edge4" class="edge">
<title>Category&#45;&gt;Page</title>
<path fill="none" stroke="#62cefa" d="M560.45,-173.9C572.44,-160.12 587.41,-142.9 599.27,-129.26"/>
<polygon fill="#62cefa" stroke="#62cefa" points="560.36,-174.01 550.41,-178.6 557.08,-177.78 553.8,-181.55 553.8,-181.55 553.8,-181.55 557.08,-177.78 557.2,-184.51 560.36,-174.01 560.36,-174.01"/>
<polygon fill="#62cefa" stroke="#62cefa" points="599.29,-129.24 609.25,-124.64 602.57,-125.46 605.86,-121.69 605.86,-121.69 605.86,-121.69 602.57,-125.46 602.46,-118.74 599.29,-129.24 599.29,-129.24"/>
</g>
<!-- PageCategory -->
<g id="node6" class="node">
<title>PageCategory</title>
<ellipse fill="none" stroke="black" cx="422.5" cy="-18" rx="75.29" ry="18"/>
<text text-anchor="middle" x="422.5" y="-14.3" font-family="Times,serif" font-size="14.00">PageCategory</text>
</g>
<!-- Category&#45;&gt;PageCategory -->
<g id="edge3" class="edge">
<title>Category&#45;&gt;PageCategory</title>
<path fill="none" stroke="#caa2ed" d="M522.78,-172.42C500.5,-138.33 461.3,-78.37 439.09,-44.38"/>
<polygon fill="#caa2ed" stroke="#caa2ed" points="523.02,-172.79 524.73,-183.62 525.76,-176.97 528.49,-181.16 528.49,-181.16 528.49,-181.16 525.76,-176.97 532.26,-178.7 523.02,-172.79 523.02,-172.79"/>
<polygon fill="#caa2ed" stroke="#caa2ed" points="439.03,-44.3 437.33,-33.46 436.3,-40.11 433.56,-35.93 433.56,-35.93 433.56,-35.93 436.3,-40.11 429.8,-38.39 439.03,-44.3 439.03,-44.3"/>
</g>
<!-- Page&#45;&gt;PageCategory -->
<g id="edge6" class="edge">
<title>Page&#45;&gt;PageCategory</title>
<path fill="none" stroke="#eaa34a" d="M585.45,-88.91C562.82,-78.92 532.43,-65.58 505.5,-54 493.14,-48.68 479.7,-42.98 467.32,-37.76"/>
<polygon fill="#eaa34a" stroke="#eaa34a" points="585.49,-88.93 592.82,-97.09 590.06,-90.95 594.64,-92.97 594.64,-92.97 594.64,-92.97 590.06,-90.95 596.46,-88.86 585.49,-88.93 585.49,-88.93"/>
<polygon fill="#eaa34a" stroke="#eaa34a" points="467.31,-37.76 459.84,-29.73 462.7,-35.82 458.09,-33.88 458.09,-33.88 458.09,-33.88 462.7,-35.82 456.34,-38.02 467.31,-37.76 467.31,-37.76"/>
</g>
<!-- Page&#45;&gt;Site -->
<g id="edge5" class="edge">
<title>Page&#45;&gt;Site</title>
<path fill="none" stroke="#d039cb" d="M662.18,-99.14C687.83,-94.58 720.12,-85.8 744.5,-69 753.7,-62.66 761.51,-53.27 767.55,-44.34"/>
<polygon fill="#d039cb" stroke="#d039cb" points="661.87,-99.19 651.28,-96.35 656.93,-99.99 652,-100.79 652,-100.79 652,-100.79 656.93,-99.99 652.72,-105.24 661.87,-99.19 661.87,-99.19"/>
<polygon fill="#d039cb" stroke="#d039cb" points="767.67,-44.15 776.8,-38.08 770.33,-39.92 772.99,-35.69 772.99,-35.69 772.99,-35.69 770.33,-39.92 769.17,-33.29 767.67,-44.15 767.67,-44.15"/>
</g>
<!-- ActionText::RichText -->
<g id="node8" class="node">
<title>ActionText::RichText</title>
<ellipse fill="none" stroke="black" cx="622.5" cy="-18" rx="106.68" ry="18"/>
<text text-anchor="middle" x="622.5" y="-14.3" font-family="Times,serif" font-size="14.00">ActionText::RichText</text>
</g>
<!-- Page&#45;&gt;ActionText::RichText -->
<g id="edge7" class="edge">
<title>Page&#45;&gt;ActionText::RichText</title>
<path fill="none" stroke="#798885" d="M619.86,-76.66C620.01,-69.3 620.22,-61.34 620.5,-54 620.6,-51.45 620.72,-48.79 620.85,-46.13"/>
<polygon fill="#798885" stroke="#798885" points="619.86,-76.87 615.19,-86.79 619.77,-81.87 619.69,-86.87 619.69,-86.87 619.69,-86.87 619.77,-81.87 624.18,-86.95 619.86,-76.87 619.86,-76.87"/>
<polygon fill="#798885" stroke="#798885" points="620.85,-46.07 625.89,-36.33 621.13,-41.08 621.4,-36.08 621.4,-36.08 621.4,-36.08 621.13,-41.08 616.9,-35.84 620.85,-46.07 620.85,-46.07"/>
<text text-anchor="middle" x="682.5" y="-57.8" font-family="Times,serif" font-size="14.00">rich_text_content</text>
</g>
</g>
</svg>
