<?xml version="1.0" encoding="UTF-8" standalone="no"?>
<!DOCTYPE svg PUBLIC "-//W3C//DTD SVG 1.1//EN"
 "http://www.w3.org/Graphics/SVG/1.1/DTD/svg11.dtd">
<!-- Generated by graphviz version 2.43.0 (0)
 -->
<!-- Title: models_diagram Pages: 1 -->
<svg width="1033pt" height="552pt"
 viewBox="0.00 0.00 1032.50 552.00" xmlns="http://www.w3.org/2000/svg" xmlns:xlink="http://www.w3.org/1999/xlink">
<g id="graph0" class="graph" transform="scale(1 1) rotate(0) translate(4 548)">
<title>models_diagram</title>
<polygon fill="transparent" stroke="transparent" points="-4,4 -4,-548 1028.5,-548 1028.5,4 -4,4"/>
<!-- _diagram_info -->
<g id="node1" class="node">
<title>_diagram_info</title>
<text text-anchor="start" x="8" y="-515.1" font-family="Times,serif" font-size="13.00">Models diagram</text>
<text text-anchor="start" x="8" y="-501.1" font-family="Times,serif" font-size="13.00">Date: Feb 01 2024 &#45; 16:29</text>
<text text-anchor="start" x="8" y="-487.1" font-family="Times,serif" font-size="13.00">Migration version: 20220122014642</text>
<text text-anchor="start" x="8" y="-473.1" font-family="Times,serif" font-size="13.00">Generated by RailRoady 1.6.0</text>
<text text-anchor="start" x="8" y="-459.1" font-family="Times,serif" font-size="13.00">http://railroady.prestonlee.com</text>
</g>
<!-- ApplicationRecord -->
<g id="node2" class="node">
<title>ApplicationRecord</title>
<ellipse fill="none" stroke="black" cx="372.5" cy="-490.5" rx="95.58" ry="18"/>
<text text-anchor="middle" x="372.5" y="-486.8" font-family="Times,serif" font-size="14.00">ApplicationRecord</text>
</g>
<!-- Author -->
<g id="node3" class="node">
<title>Author</title>
<path fill="none" stroke="black" d="M748.5,-437.5C748.5,-437.5 912.5,-437.5 912.5,-437.5 918.5,-437.5 924.5,-443.5 924.5,-449.5 924.5,-449.5 924.5,-531.5 924.5,-531.5 924.5,-537.5 918.5,-543.5 912.5,-543.5 912.5,-543.5 748.5,-543.5 748.5,-543.5 742.5,-543.5 736.5,-537.5 736.5,-531.5 736.5,-531.5 736.5,-449.5 736.5,-449.5 736.5,-443.5 742.5,-437.5 748.5,-437.5"/>
<text text-anchor="middle" x="830.5" y="-528.3" font-family="Times,serif" font-size="14.00">Author</text>
<polyline fill="none" stroke="black" points="736.5,-520.5 924.5,-520.5 "/>
<text text-anchor="start" x="744.5" y="-505.3" font-family="Times,serif" font-size="14.00">id :INTEGER</text>
<text text-anchor="start" x="744.5" y="-490.3" font-family="Times,serif" font-size="14.00">name :varchar</text>
<text text-anchor="start" x="744.5" y="-475.3" font-family="Times,serif" font-size="14.00">created_at :datetime(6)</text>
<text text-anchor="start" x="744.5" y="-460.3" font-family="Times,serif" font-size="14.00">updated_at :datetime(6)</text>
<text text-anchor="start" x="744.5" y="-445.3" font-family="Times,serif" font-size="14.00">bio :TEXT</text>
</g>
<!-- Page -->
<g id="node5" class="node">
<title>Page</title>
<path fill="none" stroke="black" d="M622.5,-173.5C622.5,-173.5 800.5,-173.5 800.5,-173.5 806.5,-173.5 812.5,-179.5 812.5,-185.5 812.5,-185.5 812.5,-387.5 812.5,-387.5 812.5,-393.5 806.5,-399.5 800.5,-399.5 800.5,-399.5 622.5,-399.5 622.5,-399.5 616.5,-399.5 610.5,-393.5 610.5,-387.5 610.5,-387.5 610.5,-185.5 610.5,-185.5 610.5,-179.5 616.5,-173.5 622.5,-173.5"/>
<text text-anchor="middle" x="711.5" y="-384.3" font-family="Times,serif" font-size="14.00">Page</text>
<polyline fill="none" stroke="black" points="610.5,-376.5 812.5,-376.5 "/>
<text text-anchor="start" x="618.5" y="-361.3" font-family="Times,serif" font-size="14.00">id :INTEGER</text>
<text text-anchor="start" x="618.5" y="-346.3" font-family="Times,serif" font-size="14.00">site_id :INTEGER</text>
<text text-anchor="start" x="618.5" y="-331.3" font-family="Times,serif" font-size="14.00">author_id :INTEGER</text>
<text text-anchor="start" x="618.5" y="-316.3" font-family="Times,serif" font-size="14.00">teaser_img_url :varchar</text>
<text text-anchor="start" x="618.5" y="-301.3" font-family="Times,serif" font-size="14.00">title :varchar</text>
<text text-anchor="start" x="618.5" y="-286.3" font-family="Times,serif" font-size="14.00">body :TEXT</text>
<text text-anchor="start" x="618.5" y="-271.3" font-family="Times,serif" font-size="14.00">date_published :date</text>
<text text-anchor="start" x="618.5" y="-256.3" font-family="Times,serif" font-size="14.00">native_id :varchar</text>
<text text-anchor="start" x="618.5" y="-241.3" font-family="Times,serif" font-size="14.00">native_page_url :varchar</text>
<text text-anchor="start" x="618.5" y="-226.3" font-family="Times,serif" font-size="14.00">native_image_url :varchar</text>
<text text-anchor="start" x="618.5" y="-211.3" font-family="Times,serif" font-size="14.00">created_at :datetime(6)</text>
<text text-anchor="start" x="618.5" y="-196.3" font-family="Times,serif" font-size="14.00">updated_at :datetime(6)</text>
<text text-anchor="start" x="618.5" y="-181.3" font-family="Times,serif" font-size="14.00">zbody :BLOB</text>
</g>
<!-- Author&#45;&gt;Page -->
<g id="edge1" class="edge">
<title>Author&#45;&gt;Page</title>
<path fill="none" stroke="#4221f5" d="M794.74,-428.8C790.91,-422.3 786.93,-415.53 782.86,-408.64"/>
<polygon fill="#4221f5" stroke="#4221f5" points="794.78,-428.86 795.98,-439.76 797.32,-433.17 799.85,-437.48 799.85,-437.48 799.85,-437.48 797.32,-433.17 803.73,-435.2 794.78,-428.86 794.78,-428.86"/>
<polygon fill="#4221f5" stroke="#4221f5" points="782.76,-408.46 781.56,-397.56 780.22,-404.15 777.68,-399.84 777.68,-399.84 777.68,-399.84 780.22,-404.15 773.81,-402.13 782.76,-408.46 782.76,-408.46"/>
</g>
<!-- Site -->
<g id="node7" class="node">
<title>Site</title>
<path fill="none" stroke="black" d="M848.5,-0.5C848.5,-0.5 1012.5,-0.5 1012.5,-0.5 1018.5,-0.5 1024.5,-6.5 1024.5,-12.5 1024.5,-12.5 1024.5,-109.5 1024.5,-109.5 1024.5,-115.5 1018.5,-121.5 1012.5,-121.5 1012.5,-121.5 848.5,-121.5 848.5,-121.5 842.5,-121.5 836.5,-115.5 836.5,-109.5 836.5,-109.5 836.5,-12.5 836.5,-12.5 836.5,-6.5 842.5,-0.5 848.5,-0.5"/>
<text text-anchor="middle" x="930.5" y="-106.3" font-family="Times,serif" font-size="14.00">Site</text>
<polyline fill="none" stroke="black" points="836.5,-98.5 1024.5,-98.5 "/>
<text text-anchor="start" x="844.5" y="-83.3" font-family="Times,serif" font-size="14.00">id :INTEGER</text>
<text text-anchor="start" x="844.5" y="-68.3" font-family="Times,serif" font-size="14.00">name :varchar</text>
<text text-anchor="start" x="844.5" y="-53.3" font-family="Times,serif" font-size="14.00">description :TEXT</text>
<text text-anchor="start" x="844.5" y="-38.3" font-family="Times,serif" font-size="14.00">url :varchar</text>
<text text-anchor="start" x="844.5" y="-23.3" font-family="Times,serif" font-size="14.00">created_at :datetime(6)</text>
<text text-anchor="start" x="844.5" y="-8.3" font-family="Times,serif" font-size="14.00">updated_at :datetime(6)</text>
</g>
<!-- Author&#45;&gt;Site -->
<g id="edge2" class="edge">
<title>Author&#45;&gt;Site</title>
<path fill="none" stroke="#70314c" d="M845.08,-427.16C863.48,-348.51 895.02,-213.67 914.2,-131.7"/>
<polygon fill="#70314c" stroke="#70314c" points="845.04,-427.34 838.38,-436.06 843.9,-432.21 842.76,-437.08 842.76,-437.08 842.76,-437.08 843.9,-432.21 847.14,-438.11 845.04,-427.34 845.04,-427.34"/>
<polygon fill="#70314c" stroke="#70314c" points="914.25,-131.46 920.91,-122.75 915.39,-126.59 916.53,-121.72 916.53,-121.72 916.53,-121.72 915.39,-126.59 912.15,-120.7 914.25,-131.46 914.25,-131.46"/>
</g>
<!-- Category -->
<g id="node4" class="node">
<title>Category</title>
<path fill="none" stroke="black" d="M498.5,-445C498.5,-445 662.5,-445 662.5,-445 668.5,-445 674.5,-451 674.5,-457 674.5,-457 674.5,-524 674.5,-524 674.5,-530 668.5,-536 662.5,-536 662.5,-536 498.5,-536 498.5,-536 492.5,-536 486.5,-530 486.5,-524 486.5,-524 486.5,-457 486.5,-457 486.5,-451 492.5,-445 498.5,-445"/>
<text text-anchor="middle" x="580.5" y="-520.8" font-family="Times,serif" font-size="14.00">Category</text>
<polyline fill="none" stroke="black" points="486.5,-513 674.5,-513 "/>
<text text-anchor="start" x="494.5" y="-497.8" font-family="Times,serif" font-size="14.00">id :INTEGER</text>
<text text-anchor="start" x="494.5" y="-482.8" font-family="Times,serif" font-size="14.00">name :varchar</text>
<text text-anchor="start" x="494.5" y="-467.8" font-family="Times,serif" font-size="14.00">created_at :datetime(6)</text>
<text text-anchor="start" x="494.5" y="-452.8" font-family="Times,serif" font-size="14.00">updated_at :datetime(6)</text>
</g>
<!-- Category&#45;&gt;Page -->
<g id="edge4" class="edge">
<title>Category&#45;&gt;Page</title>
<path fill="none" stroke="#9c3380" d="M615.1,-436.15C620.83,-427.31 626.97,-417.84 633.28,-408.12"/>
<polygon fill="#9c3380" stroke="#9c3380" points="615.01,-436.28 605.8,-442.22 612.29,-440.47 609.57,-444.67 609.57,-444.67 609.57,-444.67 612.29,-440.47 613.35,-447.12 615.01,-436.28 615.01,-436.28"/>
<polygon fill="#9c3380" stroke="#9c3380" points="633.41,-407.91 642.63,-401.97 636.14,-403.71 638.86,-399.52 638.86,-399.52 638.86,-399.52 636.14,-403.71 635.08,-397.07 633.41,-407.91 633.41,-407.91"/>
</g>
<!-- PageCategory -->
<g id="node6" class="node">
<title>PageCategory</title>
<path fill="none" stroke="black" d="M410.5,-8C410.5,-8 574.5,-8 574.5,-8 580.5,-8 586.5,-14 586.5,-20 586.5,-20 586.5,-102 586.5,-102 586.5,-108 580.5,-114 574.5,-114 574.5,-114 410.5,-114 410.5,-114 404.5,-114 398.5,-108 398.5,-102 398.5,-102 398.5,-20 398.5,-20 398.5,-14 404.5,-8 410.5,-8"/>
<text text-anchor="middle" x="492.5" y="-98.8" font-family="Times,serif" font-size="14.00">PageCategory</text>
<polyline fill="none" stroke="black" points="398.5,-91 586.5,-91 "/>
<text text-anchor="start" x="406.5" y="-75.8" font-family="Times,serif" font-size="14.00">id :INTEGER</text>
<text text-anchor="start" x="406.5" y="-60.8" font-family="Times,serif" font-size="14.00">page_id :INTEGER</text>
<text text-anchor="start" x="406.5" y="-45.8" font-family="Times,serif" font-size="14.00">category_id :INTEGER</text>
<text text-anchor="start" x="406.5" y="-30.8" font-family="Times,serif" font-size="14.00">created_at :datetime(6)</text>
<text text-anchor="start" x="406.5" y="-15.8" font-family="Times,serif" font-size="14.00">updated_at :datetime(6)</text>
</g>
<!-- Category&#45;&gt;PageCategory -->
<g id="edge3" class="edge">
<title>Category&#45;&gt;PageCategory</title>
<path fill="none" stroke="#b00149" d="M569.28,-434.98C552.88,-355.34 522.47,-207.58 505.25,-123.93"/>
<polygon fill="#b00149" stroke="#b00149" points="569.32,-435.17 566.92,-445.87 570.32,-440.06 571.33,-444.96 571.33,-444.96 571.33,-444.96 570.32,-440.06 575.74,-444.05 569.32,-435.17 569.32,-435.17"/>
<polygon fill="#b00149" stroke="#b00149" points="505.23,-123.85 507.62,-113.15 504.22,-118.95 503.22,-114.05 503.22,-114.05 503.22,-114.05 504.22,-118.95 498.81,-114.96 505.23,-123.85 505.23,-123.85"/>
</g>
<!-- Page&#45;&gt;PageCategory -->
<g id="edge6" class="edge">
<title>Page&#45;&gt;PageCategory</title>
<path fill="none" stroke="#3dd572" d="M603.29,-175.06C585.26,-156.66 567.18,-138.21 551.01,-121.71"/>
<polygon fill="#3dd572" stroke="#3dd572" points="603.33,-175.11 607.12,-185.4 606.83,-178.68 610.33,-182.25 610.33,-182.25 610.33,-182.25 606.83,-178.68 613.55,-179.11 603.33,-175.11 603.33,-175.11"/>
<polygon fill="#3dd572" stroke="#3dd572" points="550.72,-121.41 546.93,-111.12 547.22,-117.84 543.72,-114.27 543.72,-114.27 543.72,-114.27 547.22,-117.84 540.5,-117.42 550.72,-121.41 550.72,-121.41"/>
</g>
<!-- Page&#45;&gt;Site -->
<g id="edge5" class="edge">
<title>Page&#45;&gt;Site</title>
<path fill="none" stroke="#6e544d" d="M820,-174.9C826.6,-168.17 833.14,-161.49 839.5,-155 847.77,-146.55 856.47,-137.67 865.07,-128.89"/>
<polygon fill="#6e544d" stroke="#6e544d" points="819.82,-175.08 809.61,-179.07 816.32,-178.65 812.82,-182.22 812.82,-182.22 812.82,-182.22 816.32,-178.65 816.04,-185.37 819.82,-175.08 819.82,-175.08"/>
<polygon fill="#6e544d" stroke="#6e544d" points="865.26,-128.69 875.47,-124.69 868.76,-125.12 872.26,-121.55 872.26,-121.55 872.26,-121.55 868.76,-125.12 869.04,-118.4 865.26,-128.69 865.26,-128.69"/>
</g>
<!-- ActionText::RichText -->
<g id="node8" class="node">
<title>ActionText::RichText</title>
<ellipse fill="none" stroke="black" cx="711.5" cy="-61" rx="106.68" ry="18"/>
<text text-anchor="middle" x="711.5" y="-57.3" font-family="Times,serif" font-size="14.00">ActionText::RichText</text>
</g>
<!-- Page&#45;&gt;ActionText::RichText -->
<g id="edge7" class="edge">
<title>Page&#45;&gt;ActionText::RichText</title>
<path fill="none" stroke="#b52c03" d="M711.5,-163.08C711.5,-135.31 711.5,-108.42 711.5,-89.36"/>
<polygon fill="#b52c03" stroke="#b52c03" points="711.5,-163.42 707,-173.42 711.5,-168.42 711.5,-173.42 711.5,-173.42 711.5,-173.42 711.5,-168.42 716,-173.42 711.5,-163.42 711.5,-163.42"/>
<polygon fill="#b52c03" stroke="#b52c03" points="711.5,-89.1 716,-79.1 711.5,-84.1 711.5,-79.1 711.5,-79.1 711.5,-79.1 711.5,-84.1 707,-79.1 711.5,-89.1 711.5,-89.1"/>
<text text-anchor="middle" x="773.5" y="-143.8" font-family="Times,serif" font-size="14.00">rich_text_content</text>
</g>
</g>
</svg>
